<svg width="165px" height="23px" viewBox="0 0 165 23" version="1.1" xmlns="http://www.w3.org/2000/svg" xmlns:xlink="http://www.w3.org/1999/xlink">
    <g id="Page-1" stroke="none" stroke-width="1" fill="none" fill-rule="evenodd">
        <g id="Group" transform="translate(0.000000, -0.000066)" fill-rule="nonzero">
            <path d="M31.59,21.8100663 L31.589,14.4300663 L34.757,14.4300663 L38.524,21.8100663 L43.273,21.8100663 L43.273,21.6000663 L38.883,13.2930663 L39.085,13.2010663 C39.408,13.0430663 39.712,12.8690663 39.998,12.6790663 L40.412,12.3830663 C41.0797706,11.8684646 41.6138208,11.2006447 41.969,10.4360663 C42.34,9.65106627 42.526,8.69906627 42.526,7.57806627 C42.526,6.23306627 42.221,5.10606627 41.61,4.19506627 C41,3.28506627 40.123,2.59406627 38.982,2.12206627 C37.84,1.65106627 36.475,1.41506627 34.888,1.41506627 L27.165,1.41506627 L27.165,21.8100663 L31.59,21.8100663 L31.59,21.8100663 Z M31.59,4.97306627 L34.888,4.97306627 C35.978,4.97306627 36.783,5.23906627 37.305,5.77106627 C37.826,6.30306627 38.087,7.02706627 38.087,7.94206627 C38.087,8.54006627 37.969,9.05806627 37.734,9.49706627 C37.4944172,9.94087507 37.1196102,10.2967666 36.664,10.5130663 C36.184,10.7510663 35.588,10.8700663 34.874,10.8700663 L31.589,10.8720663 L31.589,4.97206627 L31.59,4.97306627 Z M51.817,22.0900663 C53.311,22.0900663 54.558,21.8050663 55.559,21.2360663 C56.559,20.6660663 57.299,20.0400663 57.779,19.3590663 L55.721,17.0190663 C55.279,17.5890663 54.744,18.0070663 54.114,18.2730663 C53.484,18.5390663 52.808,18.6730663 52.084,18.6730663 C51.314,18.6730663 50.657,18.5060663 50.112,18.1750663 C49.5690367,17.8460853 49.1331048,17.3667338 48.857,16.7950663 C48.6779744,16.4286765 48.5542948,16.0377545 48.49,15.6350663 L48.486,15.6200663 L58.116,15.6190663 L58.116,13.8260663 C58.116,12.3220663 57.858,11.0120663 57.341,9.89606627 C56.825,8.78006627 56.064,7.91406627 55.058,7.29806627 C54.053,6.68206627 52.813,6.37306627 51.338,6.37306627 C49.853,6.37306627 48.576,6.71006627 47.504,7.38206627 C46.434,8.05406627 45.609,8.98206627 45.031,10.1620663 C44.453,11.3440663 44.164,12.6910663 44.164,14.2040663 L44.164,14.7500663 C44.164,16.0950663 44.467,17.3230663 45.074,18.4340663 C45.679,19.5450663 46.554,20.4320663 47.694,21.0950663 C48.836,21.7590663 50.21,22.0900663 51.817,22.0900663 L51.817,22.0900663 Z M48.605,12.3570663 L48.709,11.9490663 C48.902,11.2850663 49.209,10.7580663 49.633,10.3660663 C50.055,9.97306627 50.614,9.77706627 51.31,9.77706627 C51.92,9.77706627 52.416,9.88906627 52.796,10.1140663 C53.176,10.3380663 53.461,10.6500663 53.649,11.0520663 C53.837,11.4540663 53.931,11.9160663 53.931,12.4390663 L53.931,12.7750663 L48.527,12.7750663 L48.605,12.3570663 L48.605,12.3570663 Z M64.138,21.8100663 L64.138,0.294066266 L59.868,0.294066266 L59.868,21.8100663 L64.138,21.8100663 Z M69.046,4.91706627 C69.769,4.91706627 70.345,4.71106627 70.772,4.30006627 C71.2,3.89006627 71.413,3.37106627 71.413,2.74506627 C71.413,2.11006627 71.2,1.59006627 70.773,1.18406627 C70.345,0.777066266 69.769,0.574066266 69.046,0.574066266 C68.322,0.574066266 67.745,0.777066266 67.312,1.18406627 C66.88,1.59006627 66.664,2.11006627 66.664,2.74506627 C66.664,3.37106627 66.88,3.88906627 67.312,4.30006627 C67.745,4.71106627 68.322,4.91706627 69.046,4.91706627 Z M71.188,21.8100663 L71.188,6.65406627 L66.918,6.65406627 L66.918,21.8100663 L71.188,21.8100663 Z M80.874,22.0900663 C82.367,22.0900663 83.614,21.8050663 84.615,21.2360663 C85.615,20.6660663 86.355,20.0400663 86.835,19.3590663 L84.777,17.0190663 C84.336,17.5890663 83.8,18.0070663 83.171,18.2730663 C82.541,18.5390663 81.865,18.6730663 81.141,18.6730663 C80.371,18.6730663 79.713,18.5060663 79.168,18.1750663 C78.6254066,17.8459357 78.1898353,17.3665988 77.914,16.7950663 C77.7349744,16.4286765 77.6112948,16.0377545 77.547,15.6350663 L77.544,15.6200663 L87.174,15.6190663 L87.174,13.8260663 C87.174,12.3220663 86.914,11.0120663 86.398,9.89606627 C85.881,8.78006627 85.12,7.91406627 84.115,7.29806627 C83.11,6.68206627 81.869,6.37306627 80.395,6.37306627 C78.91,6.37306627 77.632,6.71006627 76.561,7.38206627 C75.49,8.05406627 74.666,8.98206627 74.088,10.1620663 C73.51,11.3440663 73.221,12.6910663 73.221,14.2040663 L73.221,14.7500663 C73.221,16.0950663 73.524,17.3230663 74.13,18.4340663 C74.736,19.5450663 75.61,20.4320663 76.751,21.0950663 C77.893,21.7590663 79.267,22.0900663 80.874,22.0900663 L80.874,22.0900663 Z M77.662,12.3570663 L77.766,11.9490663 C77.959,11.2850663 78.266,10.7580663 78.689,10.3660663 C79.112,9.97306627 79.671,9.77706627 80.366,9.77706627 C80.976,9.77706627 81.472,9.88906627 81.853,10.1140663 C82.233,10.3380663 82.518,10.6500663 82.706,11.0520663 C82.894,11.4540663 82.987,11.9160663 82.987,12.4390663 L82.987,12.7750663 L77.582,12.7750663 L77.662,12.3570663 L77.662,12.3570663 Z M8.802,1.00006627 L8.803,1.00106627 L8.887,1.00006627 C13.708,1.00006627 17.632,4.76806627 17.771,9.46706627 L17.775,9.72406627 C17.7758998,11.7224385 17.0799492,13.6585817 15.807,15.1990663 L22.134,22.0000663 L0,22.0000663 L0,1.00006627 L8.802,1.00006627 Z M95.463,3.2114678e-05 C95.8333755,-0.00103921485 96.2033442,0.0246948362 96.57,0.0770662663 C96.9136641,0.126744214 97.2544704,0.194504909 97.591,0.280066266 L97.591,0.280066266 L97.563,3.54306627 C97.385,3.50606627 97.195,3.47806627 96.993,3.45906627 C96.791,3.44106627 96.567,3.43106627 96.323,3.43106627 C95.609,3.43106627 95.055,3.59706627 94.66,3.92906627 L94.66,3.92906627 L94.503,4.07906627 C94.213,4.39906627 94.068,4.82806627 94.068,5.36406627 L94.068,5.36406627 L94.067,6.65506627 L97.07,6.65306627 L97.07,9.73606627 L94.068,9.73606627 L94.068,21.8100663 L89.798,21.8100663 L89.798,9.73506627 L87.558,9.73506627 L87.558,6.65406627 L89.798,6.65506627 L89.798,5.36506627 C89.798,3.62806627 90.307,2.30006627 91.327,1.38006627 C92.347,0.460066266 93.725,3.2114678e-05 95.463,3.2114678e-05 Z M9.229,3.25406627 L8.307,3.25406627 C8.29,3.28206627 8.261,3.28106627 8.233,3.28306627 C7.76622024,3.31164625 7.30491106,3.39900269 6.86,3.54306627 C5.66487798,3.90798692 4.60574104,4.62104163 3.818,5.59106627 C3.05579811,6.50896311 2.57486721,7.62743129 2.433,8.81206627 C2.371,9.30206627 2.364,9.79206627 2.416,10.2770663 C2.477,10.8570663 2.634,11.4190663 2.86,11.9600663 C3.017,12.3330663 3.188,12.7000663 3.438,13.0230663 C3.43986852,13.0276343 3.44221491,13.0319918 3.445,13.0360663 L3.471,13.0780663 C3.792,13.5680663 4.185,13.9940663 4.631,14.3730663 C5.718,15.2950663 6.985,15.7860663 8.404,15.8890663 C8.904,15.9250663 9.407,15.8840663 9.902,15.7860663 C9.91752107,15.783056 9.93322045,15.7810518 9.949,15.7800663 L14.116,20.1240663 L17.604,20.0900663 L13.156,15.5200663 L11.668,13.9470663 C11.436,13.7010663 11.198,13.4630663 10.965,13.2180663 C10.791,13.0360663 10.622,12.8480663 10.451,12.6620663 C10.416,12.6230663 10.387,12.5990663 10.325,12.6300663 C9.6996769,12.9425323 8.99448467,13.0586119 8.302,12.9630663 C7.79287946,12.8989817 7.30513318,12.7194117 6.876,12.4380663 C6.36639356,12.1088049 5.9525085,11.651117 5.676,11.1110663 C5.389,10.4910663 5.259,9.84806627 5.342,9.16306627 C5.41398279,8.59318292 5.6267137,8.0501864 5.961,7.58306627 C6.171,7.28106627 6.437,7.02106627 6.742,6.80706627 C7.5261519,6.240987 8.51069202,6.02719286 9.459,6.21706627 C9.9,6.29806627 10.302,6.48606627 10.686,6.71206627 C10.861,6.83206627 11.029,6.96306627 11.182,7.11006627 C12.2434323,8.1262787 12.5329415,9.70890212 11.9,11.0350663 C11.857,11.1240663 11.873,11.1670663 11.936,11.2320663 C12.53,11.8550663 13.122,12.4790663 13.712,13.1060663 C13.922,13.3290663 13.921,13.3330663 14.095,13.0740663 C14.7390915,12.1207934 15.106037,11.0074947 15.155,9.85806627 C15.1807,9.29809932 15.1319406,8.73719875 15.01,8.19006627 C14.8822794,7.61429613 14.6699754,7.06062065 14.38,6.54706627 C13.9956087,5.8462166 13.4786959,5.22673637 12.858,4.72306627 L12.849,4.71606627 L12.839,4.71006627 L12.732,4.60806627 C12.618,4.51406627 12.49,4.43806627 12.37,4.35306627 C12.1,4.16006627 11.797,4.02306627 11.501,3.87106627 C10.966,3.59706627 10.396,3.45006627 9.813,3.33906627 C9.62,3.30306627 9.423,3.28206627 9.229,3.25406627 Z" id="Shape" fill="#6ACDA5"></path>
            <path d="M105.03,22.0000663 C106.18,22.0000663 107.18,21.8290663 108.031,21.4870663 C108.881,21.1450663 109.539,20.6440663 110.002,19.9850663 C110.466,19.3260663 110.698,18.5230663 110.698,17.5750663 C110.698,16.6850663 110.499,15.9130663 110.102,15.2610663 C109.704,14.6090663 109.127,14.0460663 108.371,13.5720663 C107.614,13.0990663 106.692,12.6840663 105.605,12.3270663 C105.137047,12.1703435 104.676559,11.9921548 104.225,11.7930663 C103.827,11.6150663 103.516,11.4230663 103.293,11.2160663 C103.08129,11.0337987 102.959372,10.7684271 102.959,10.4890663 C102.959,10.2470663 103.03,10.0280663 103.173,9.83206627 C103.316,9.63606627 103.533,9.47706627 103.822,9.35606627 C104.111,9.23506627 104.468,9.17406627 104.894,9.17406627 C105.333,9.17406627 105.694,9.24606627 105.976,9.38806627 C106.243127,9.51634422 106.462661,9.72607453 106.603,9.98706627 C106.739,10.2430663 106.807,10.5390663 106.807,10.8740663 L110.719,10.8740663 C110.719,9.86206627 110.473,8.99306627 109.982,8.26606627 C109.49,7.53906627 108.814,6.98206627 107.952,6.59306627 C107.092,6.20506627 106.1,6.01106627 104.977,6.01106627 C103.841,6.01106627 102.827,6.19106627 101.934,6.55106627 C101.041,6.91106627 100.337,7.42006627 99.821,8.07906627 C99.305,8.73806627 99.047,9.52306627 99.047,10.4360663 C99.047,11.1560663 99.194,11.7840663 99.487,12.3220663 C99.7825455,12.8633827 100.184218,13.3395403 100.668,13.7220663 C101.183669,14.1304224 101.745518,14.4767955 102.342,14.7540663 C102.962,15.0460663 103.6,15.3060663 104.256,15.5340663 C104.988,15.7840663 105.533,16.0130663 105.892,16.2240663 C106.252,16.4340663 106.488,16.6450663 106.603,16.8590663 C106.718,17.0730663 106.776,17.3190663 106.776,17.5970663 C106.776,17.8100663 106.72,18.0130663 106.609,18.2060663 C106.497,18.3980663 106.314,18.5550663 106.059,18.6760663 C105.805,18.7970663 105.462,18.8580663 105.029,18.8580663 C104.65986,18.8630162 104.291394,18.8250957 103.931,18.7450663 C103.644126,18.6830989 103.375674,18.5550359 103.147,18.3710663 C102.93216,18.18802 102.771378,17.9497861 102.682,17.6820663 C102.58,17.3970663 102.53,17.0410663 102.53,16.6130663 L98.598,16.6130663 C98.598,17.5610663 98.781,18.3750663 99.147,19.0550663 C99.4998909,19.720917 100.004905,20.2941118 100.621,20.7280663 C101.249388,21.1680301 101.950465,21.4936872 102.692,21.6900663 C103.455,21.8970663 104.235,22.0000663 105.029,22.0000663 L105.03,22.0000663 Z M117.936,22.0000663 C119.205,22.0000663 120.308,21.7650663 121.246,21.2950663 C122.184,20.8250663 122.917,20.1710663 123.447,19.3330663 C123.977,18.4960663 124.263,17.5290663 124.305,16.4320663 L120.393,16.4320663 C120.386,16.9660663 120.287,17.4010663 120.095,17.7350663 C119.904,18.0700663 119.626,18.3160663 119.264,18.4730663 C118.901,18.6300663 118.459,18.7080663 117.936,18.7080663 C117.301,18.7080663 116.797,18.5730663 116.424,18.3020663 C116.051,18.0320663 115.786,17.5770663 115.63,16.9390663 C115.473,16.3010663 115.394,15.4300663 115.394,14.3260663 L115.394,13.6740663 C115.394,12.5770663 115.484,11.7090663 115.661,11.0710663 C115.839,10.4340663 116.111,9.97806627 116.477,9.70306627 C116.843,9.42906627 117.308,9.29206627 117.873,9.29206627 C118.814,9.29206627 119.47,9.49206627 119.839,9.89006627 C120.209,10.2900663 120.4,10.8950663 120.414,11.7070663 L124.326,11.7070663 C124.236,10.6240663 123.937,9.65206627 123.432,8.79006627 C122.926,7.92706627 122.212,7.24706627 121.288,6.74806627 C120.364,6.24906627 119.226,6.00006627 117.873,6.00006627 C116.569,6.00006627 115.434,6.31006627 114.469,6.93006627 C113.503,7.55006627 112.752,8.43306627 112.215,9.58006627 C111.678,10.7280663 111.41,12.1000663 111.41,13.6950663 L111.41,14.3260663 C111.41,15.9150663 111.666,17.2830663 112.178,18.4300663 C112.691,19.5770663 113.435,20.4600663 114.411,21.0750663 C115.387,21.6920663 116.562,22.0000663 117.936,22.0000663 L117.936,22.0000663 Z M131.553,22.0000663 C132.857,22.0000663 134.014,21.6880663 135.025,21.0650663 C136.036,20.4410663 136.829,19.5510663 137.405,18.3930663 C137.98,17.2350663 138.267,15.8510663 138.267,14.2400663 L138.267,13.7800663 C138.267,12.1700663 137.977,10.7860663 137.399,9.62906627 C136.821,8.47106627 136.024,7.57906627 135.009,6.95106627 C133.995,6.32406627 132.836,6.01106627 131.532,6.01106627 C130.214,6.01106627 129.048,6.32406627 128.034,6.95106627 C127.019,7.57806627 126.226,8.47106627 125.654,9.62906627 C125.083,10.7860663 124.797,12.1710663 124.797,13.7810663 L124.797,14.2410663 C124.797,15.8510663 125.084,17.2350663 125.66,18.3930663 C126.235,19.5510663 127.031,20.4410663 128.05,21.0650663 C129.067,21.6880663 130.235,22.0000663 131.553,22.0000663 L131.553,22.0000663 Z M131.553,18.7300663 C130.939,18.7300663 130.429,18.5570663 130.021,18.2110663 C129.613,17.8660663 129.306,17.3580663 129.101,16.6880663 C128.895,16.0180663 128.792,15.2020663 128.792,14.2400663 L128.792,13.7600663 C128.792,12.7760663 128.893,11.9530663 129.095,11.2900663 C129.297,10.6280663 129.601,10.1300663 130.005,9.79406627 C130.41,9.45906627 130.919,9.29206627 131.532,9.29206627 C132.118,9.29206627 132.616,9.45906627 133.028,9.79406627 C133.439,10.1290663 133.751,10.6280663 133.964,11.2910663 C134.176,11.9530663 134.283,12.7760663 134.283,13.7600663 L134.283,14.2400663 C134.283,15.2020663 134.178,16.0180663 133.969,16.6880663 C133.759,17.3580663 133.451,17.8660663 133.043,18.2110663 C132.635,18.5570663 132.139,18.7290663 131.553,18.7290663 L131.553,18.7300663 Z M145.39,22.0000663 C146.61,22.0000663 147.672,21.7800663 148.575,21.3430663 C149.454235,20.9263849 150.186955,20.2536212 150.677,19.4130663 C151.175,18.5660663 151.424,17.5290663 151.424,16.3030663 L151.424,6.22406627 L147.503,6.22406627 L147.503,16.3040663 C147.503,16.8940663 147.424,17.3720663 147.267,17.7350663 C147.11,18.0990663 146.877,18.3630663 146.567,18.5260663 C146.257,18.6900663 145.864,18.7720663 145.39,18.7720663 C144.923,18.7720663 144.529,18.6900663 144.208,18.5260663 C143.881923,18.35613 143.62651,18.0762742 143.487,17.7360663 C143.327,17.3720663 143.246,16.8950663 143.246,16.3030663 L143.246,6.22406627 L139.303,6.22406627 L139.303,16.3040663 C139.303,17.5290663 139.558,18.5660663 140.067,19.4140663 C140.570236,20.2568061 141.315114,20.9288688 142.205,21.3430663 C143.122,21.7810663 144.184,22.0000663 145.39,22.0000663 L145.39,22.0000663 Z M152.178,6.22406627 L152.178,9.46306627 L156.579,9.46306627 L156.581,21.7860663 L160.503,21.7860663 L160.503,9.46306627 L165,9.46306627 L165,6.22406627 L152.178,6.22406627 Z" id="Shape" fill="#1E1E1E"></path>
        </g>
    </g>
</svg>